# xmcd CD database file
#
# Track frame offsets:
#	150
#	22617
#	48692
#
# Disc length: 948 seconds
#
# Revision: 0
# Processed by: cddbd v1.5PL3 Copyright (c) Steve Scherf et al.
# Submitted via: CDex 1.51
#
DISCID=1903b203
DTITLE=小坂由美子 - 宇宙の騎士テッカマンブレード
DYEAR=1992
DGENRE=Anime
TTITLE0=永遠の孤独
TTITLE1=LONELY HEART
TTITLE2=永遠の孤独(オリジナルカラオケ)
EXTD=YEAR: 1992
EXTT0=
EXTT1=
EXTT2=
PLAYORDER=
